<svg xmlns="http://www.w3.org/2000/svg" viewBox="0 0 24 24" fill="currentColor"><path d="M 11.707 0.305 L 17.364 5.962 C 17.551 6.15 17.657 6.404 17.657 6.669 C 17.657 6.934 17.551 7.189 17.364 7.376 L 11.707 13.033 C 11.518 13.215 11.266 13.316 11.004 13.314 C 10.741 13.312 10.491 13.207 10.305 13.021 C 10.12 12.836 10.015 12.585 10.012 12.323 C 10.01 12.06 10.111 11.808 10.293 11.619 L 14.243 7.669 L 1 7.669 C 0.735 7.669 0.48 7.564 0.293 7.376 C 0.105 7.189 0 6.935 0 6.669 C 0 6.404 0.105 6.15 0.293 5.962 C 0.48 5.775 0.735 5.669 1 5.669 L 14.243 5.669 L 10.293 1.719 C 10.197 1.627 10.121 1.517 10.069 1.395 C 10.016 1.273 9.989 1.141 9.988 1.009 C 9.987 0.876 10.012 0.744 10.062 0.621 C 10.112 0.498 10.187 0.387 10.281 0.293 C 10.374 0.199 10.486 0.125 10.609 0.074 C 10.732 0.024 10.864 -0.001 10.996 0 C 11.129 0.001 11.26 0.029 11.382 0.081 C 11.504 0.134 11.615 0.21 11.707 0.305 Z" fill="currentColor" fill-rule="evenodd" transform="matrix(1 0 0 1 3 5.331)"/></svg>
