<svg xmlns="http://www.w3.org/2000/svg" viewBox="0 0 24 24" fill="currentColor"><path d="M 8.499 0 C 7.144 0 5.808 0.324 4.604 0.946 C 3.399 1.567 2.36 2.467 1.575 3.572 C 0.789 4.676 0.278 5.952 0.086 7.294 C -0.106 8.636 0.025 10.004 0.469 11.285 C 0.913 12.565 1.657 13.721 2.639 14.656 C 3.62 15.59 4.811 16.277 6.112 16.658 C 7.413 17.038 8.786 17.103 10.116 16.845 C 11.447 16.587 12.697 16.015 13.761 15.176 L 17.413 18.828 C 17.602 19.01 17.854 19.111 18.117 19.109 C 18.379 19.106 18.63 19.001 18.815 18.816 C 19.001 18.63 19.106 18.38 19.108 18.117 C 19.11 17.855 19.009 17.603 18.827 17.414 L 15.175 13.762 C 16.163 12.509 16.778 11.002 16.95 9.416 C 17.122 7.829 16.844 6.226 16.148 4.79 C 15.451 3.354 14.364 2.143 13.012 1.296 C 11.659 0.449 10.095 0 8.499 0 Z M 1.999 8.5 C 1.999 6.776 2.684 5.123 3.903 3.904 C 5.122 2.685 6.775 2 8.499 2 C 10.223 2 11.876 2.685 13.095 3.904 C 14.314 5.123 14.999 6.776 14.999 8.5 C 14.999 10.224 14.314 11.877 13.095 13.096 C 11.876 14.315 10.223 15 8.499 15 C 6.775 15 5.122 14.315 3.903 13.096 C 2.684 11.877 1.999 10.224 1.999 8.5 Z" fill="currentColor" fill-rule="nonzero" transform="matrix(1 0 0 1 2.001 2)"/></svg>
